{"title":"Ant.And.Decs.Saturday.Night.Takeaway.S10E06.WS.PDTV.x264-W33D","uid":8341723,"size":530685036,"categoryP":"video","categoryS":"tv_shows","magnet":"?xt=urn:btih:0c15fa90061bc634e99d42a9ac8d133e90496fa2&amp;dn=Ant.And.Decs.Saturday.Night.Takeaway.S10E06.WS.PDTV.x264-W33D&amp;tr=udp%3A%2F%2Ftracker.openbittorrent.com%3A80&amp;tr=udp%3A%2F%2Fopen.demonii.com%3A1337&amp;tr=udp%3A%2F%2Ftracker.coppersurfer.tk%3A6969&amp;tr=udp%3A%2F%2Fexodus.desync.com%3A6969","seeders":1,"leechers":0,"uploader":"shane1989","files":1,"time":1365108942,"description":"Ant &amp; Dec's Saturday Night Takeaway (often referred to simply as Saturday Night Takeaway) is a British television variety show presented and executively produced by Ant &amp; Dec\n\n\n\nGeneral\nComplete name                            : Ant.And.Decs.Saturday.Night.Takeaway.S10E06.WS.PDTV.x264-W33D.mp4\nFormat                                   : MPEG-4\nFormat profile                           : Base Media\nCodec ID                                 : isom\nFile size                                : 506 MiB\nDuration                                 : 1h 1mn\nOverall bit rate mode                    : Variable\nOverall bit rate                         : 1 153 Kbps\n\n\nVideo\nID                                       : 1\nFormat                                   : AVC\nFormat/Info                              : Advanced Video Codec\nFormat profile                           : &lt;a class=&quot;__cf_email__&quot; href=&quot;/cdn-cgi/l/email-protection&quot; data-cfemail=&quot;bcf4d5dbd4fcf08f928d&quot;&gt;[email&amp;#160;protected]&lt;/a&gt;&lt;script cf-hash='f9e31' type=&quot;text/javascript&quot;&gt;\n/* &lt;![CDATA[ */!function(){try{var t=&quot;currentScript&quot;in document?document.currentScript:function(){for(var t=document.getElementsByTagName(&quot;script&quot;),e=t.length;e--;)if(t[e].getAttribute(&quot;cf-hash&quot;))return t[e]}();if(t&amp;&amp;t.previousSibling){var e,r,n,i,c=t.previousSibling,a=c.getAttribute(&quot;data-cfemail&quot;);if(a){for(e=&quot;&quot;,r=parseInt(a.substr(0,2),16),n=2;a.length-n;n+=2)i=parseInt(a.substr(n,2),16)^r,e+=String.fromCharCode(i);e=document.createTextNode(e),c.parentNode.replaceChild(e,c)}}}catch(u){}}();/* ]]&gt; */&lt;/script&gt;\nFormat settings, CABAC                   : Yes\nFormat settings, ReFrames                : 4 frames\nCodec ID                                 : avc1\nCodec ID/Info                            : Advanced Video Coding\nDuration                                 : 1h 1mn\nBit rate                                 : 1 011 Kbps\nMaximum bit rate                         : 3 999 Kbps\nWidth                                    : 704 pixels\nHeight                                   : 384 pixels\nDisplay aspect ratio                     : 1.85:1\nFrame rate mode                          : Constant\nFrame rate                               : 25.000 fps\nColor space                              : YUV\nChroma subsampling                       : 4:2:0\nBit depth                                : 8 bits\nScan type                                : Progressive\nBits/(Pixel*Frame)                       : 0.150\nStream size                              : 444 MiB (88%)\nWriting library                          : x264 core 130 r2273 b3065e6\n\n\nAudio\nID                                       : 2\nFormat                                   : AAC\nFormat/Info                              : Advanced Audio Codec\nFormat profile                           : LC\nCodec ID                                 : 40\nDuration                                 : 1h 1mn\nBit rate mode                            : Variable\nBit rate                                 : 138 Kbps\nMaximum bit rate                         : 155 Kbps\nChannel(s)                               : 2 channels\nChannel positions                        : Front: L R\nSampling rate                            : 48.0 KHz\nCompression mode                         : Lossy\nDelay relative to video                  : 80ms\nStream size                              : 60.6 MiB (12%)","torrent":{"xt":"urn:btih:0c15fa90061bc634e99d42a9ac8d133e90496fa2","amp;dn":"Ant.And.Decs.Saturday.Night.Takeaway.S10E06.WS.PDTV.x264-W33D","amp;tr":["udp%3A%2F%2Ftracker.openbittorrent.com%3A80","udp%3A%2F%2Fopen.demonii.com%3A1337","udp%3A%2F%2Ftracker.coppersurfer.tk%3A6969","udp%3A%2F%2Fexodus.desync.com%3A6969"],"infoHash":"0c15fa90061bc634e99d42a9ac8d133e90496fa2","infoHashBuffer":{"type":"Buffer","data":[12,21,250,144,6,27,198,52,233,157,66,169,172,141,19,62,144,73,111,162]},"announce":[],"urlList":[]}}